name ./resultDataOpenSim/trcMotMarkerGrf/sub10/grf-14-07.mot
datacolumns 19
datarows 30
range 1.02000000 1.13600000
endheader

                time	     ground_force_vx	     ground_force_vy	     ground_force_vz	     ground_force_px	     ground_force_py	     ground_force_pz	   l_ground_force_vx	   l_ground_force_vy	   l_ground_force_vz	   l_ground_force_px	   l_ground_force_py	   l_ground_force_pz	     ground_torque_x	     ground_torque_y	     ground_torque_z	   l_ground_torque_x	   l_ground_torque_y	   l_ground_torque_z	
          1.02000000	          0.00000000	          0.00000000	          0.00000000	          0.00000000	          0.00000000	          0.00000000	         35.60857479	        841.62178249	         36.85303035	         -0.01875373	         -0.07500100	         -0.11314787	          0.00000000	          0.00000000	          0.00000000	          0.00000000	         -6.19868013	          0.00000000	
          1.02400000	          0.00000000	          0.00000000	          0.00000000	          0.00000000	          0.00000000	          0.00000000	         40.42275625	        845.42870332	         36.86560994	         -0.01853309	         -0.07500100	         -0.11281417	          0.00000000	          0.00000000	          0.00000000	          0.00000000	         -6.30266540	          0.00000000	
          1.02800000	          0.00000000	          0.00000000	          0.00000000	          0.00000000	          0.00000000	          0.00000000	         45.31688037	        849.29130523	         36.84994495	         -0.01838237	         -0.07500100	         -0.11247913	          0.00000000	          0.00000000	          0.00000000	          0.00000000	         -6.39811671	          0.00000000	
          1.03200000	          0.00000000	          0.00000000	          0.00000000	          0.00000000	          0.00000000	          0.00000000	         50.47593652	        853.04082596	         36.76355911	         -0.01830128	         -0.07500100	         -0.11215976	          0.00000000	          0.00000000	          0.00000000	          0.00000000	         -6.48215559	          0.00000000	
          1.03600000	          0.00000000	          0.00000000	          0.00000000	          0.00000000	          0.00000000	          0.00000000	         56.09146989	        856.41937284	         36.51920995	         -0.01826740	         -0.07500100	         -0.11186939	          0.00000000	          0.00000000	          0.00000000	          0.00000000	         -6.55190297	          0.00000000	
          1.04000000	          0.00000000	          0.00000000	          0.00000000	          0.00000000	          0.00000000	          0.00000000	         62.27758317	        859.15698127	         36.03825735	         -0.01825464	         -0.07500100	         -0.11161182	          0.00000000	          0.00000000	          0.00000000	          0.00000000	         -6.60441408	          0.00000000	
          1.04400000	          0.00000000	          0.00000000	          0.00000000	          0.00000000	          0.00000000	          0.00000000	         69.02077050	        861.03746360	         35.30091637	         -0.01824877	         -0.07500100	         -0.11138447	          0.00000000	          0.00000000	          0.00000000	          0.00000000	         -6.63673489	          0.00000000	
          1.04800000	          0.00000000	          0.00000000	          0.00000000	          0.00000000	          0.00000000	          0.00000000	         76.18801597	        861.91174151	         34.34277033	         -0.01824445	         -0.07500100	         -0.11118711	          0.00000000	          0.00000000	          0.00000000	          0.00000000	         -6.64618464	          0.00000000	
          1.05200000	          0.00000000	          0.00000000	          0.00000000	          0.00000000	          0.00000000	          0.00000000	         83.57966471	        861.70751969	         33.20824881	         -0.01823365	         -0.07500100	         -0.11101825	          0.00000000	          0.00000000	          0.00000000	          0.00000000	         -6.63075897	          0.00000000	
          1.05600000	          0.00000000	          0.00000000	          0.00000000	          0.00000000	          0.00000000	          0.00000000	         90.99932347	        860.42040614	         31.91467292	         -0.01820046	         -0.07500100	         -0.11086679	          0.00000000	          0.00000000	          0.00000000	          0.00000000	         -6.58943661	          0.00000000	
          1.06000000	          0.00000000	          0.00000000	          0.00000000	          0.00000000	          0.00000000	          0.00000000	         98.31466326	        858.04992245	         30.45031866	         -0.01811820	         -0.07500100	         -0.11070827	          0.00000000	          0.00000000	          0.00000000	          0.00000000	         -6.52223652	          0.00000000	
          1.06400000	          0.00000000	          0.00000000	          0.00000000	          0.00000000	          0.00000000	          0.00000000	        105.48721647	        854.51299973	         28.78856528	         -0.01796131	         -0.07500100	         -0.11051432	          0.00000000	          0.00000000	          0.00000000	          0.00000000	         -6.43002818	          0.00000000	
          1.06800000	          0.00000000	          0.00000000	          0.00000000	          0.00000000	          0.00000000	          0.00000000	        112.55843030	        849.60862417	         26.90336902	         -0.01772643	         -0.07500100	         -0.11026853	          0.00000000	          0.00000000	          0.00000000	          0.00000000	         -6.31420975	          0.00000000	
          1.07200000	          0.00000000	          0.00000000	          0.00000000	          0.00000000	          0.00000000	          0.00000000	        119.59557564	        843.08212494	         24.78176453	         -0.01742321	         -0.07500072	         -0.10996624	          0.00000000	          0.00000000	          0.00000000	          0.00000000	         -6.17638974	          0.00000000	
          1.07600000	          0.00000000	          0.00000000	          0.00000000	          0.00000000	          0.00000000	          0.00000000	        126.62569640	        834.74116781	         22.42576964	         -0.01705300	         -0.07500000	         -0.10960746	          0.00000000	          0.00000000	          0.00000000	          0.00000000	         -6.01817279	          0.00000000	
          1.08000000	          0.00000000	          0.00000000	          0.00000000	          0.00000000	          0.00000000	          0.00000000	        133.60030861	        824.50888960	         19.84978131	         -0.01661376	         -0.07500000	         -0.10919358	          0.00000000	          0.00000000	          0.00000000	          0.00000000	         -5.84109226	          0.00000000	
          1.08400000	          0.00000000	          0.00000000	          0.00000000	          0.00000000	          0.00000000	          0.00000000	        140.41166733	        812.37926895	         17.08807343	         -0.01611407	         -0.07499984	         -0.10873372	          0.00000000	          0.00000000	          0.00000000	          0.00000000	         -5.64666329	          0.00000000	
          1.08800000	          0.00000000	          0.00000000	          0.00000000	          0.00000000	          0.00000000	          0.00000000	        146.94074965	        798.35373346	         14.20586981	         -0.01556641	         -0.07499900	         -0.10824714	          0.00000000	          0.00000000	          0.00000000	          0.00000000	         -5.43644212	          0.00000000	
          1.09200000	          0.00000000	          0.00000000	          0.00000000	          0.00000000	          0.00000000	          0.00000000	        153.09890971	        782.41715197	         11.30396643	         -0.01498407	         -0.07499892	         -0.10775790	          0.00000000	          0.00000000	          0.00000000	          0.00000000	         -5.21193062	          0.00000000	
          1.09600000	          0.00000000	          0.00000000	          0.00000000	          0.00000000	          0.00000000	          0.00000000	        158.83527747	        764.54981048	          8.51445141	         -0.01440317	         -0.07499800	         -0.10728972	          0.00000000	          0.00000000	          0.00000000	          0.00000000	         -4.97430069	          0.00000000	
          1.10000000	          0.00000000	          0.00000000	          0.00000000	          0.00000000	          0.00000000	          0.00000000	        164.10988022	        744.76317892	          5.97018607	         -0.01387198	         -0.07499800	         -0.10685824	          0.00000000	          0.00000000	          0.00000000	          0.00000000	         -4.72416830	          0.00000000	
          1.10400000	          0.00000000	          0.00000000	          0.00000000	          0.00000000	          0.00000000	          0.00000000	        168.86015576	        723.12019559	          3.74986457	         -0.01342062	         -0.07499768	         -0.10646980	          0.00000000	          0.00000000	          0.00000000	          0.00000000	         -4.46171420	          0.00000000	
          1.10800000	          0.00000000	          0.00000000	          0.00000000	          0.00000000	          0.00000000	          0.00000000	        172.98334178	        699.71861595	          1.85179451	         -0.01304032	         -0.07499705	         -0.10612446	          0.00000000	          0.00000000	          0.00000000	          0.00000000	         -4.18723487	          0.00000000	
          1.11200000	          0.00000000	          0.00000000	          0.00000000	          0.00000000	          0.00000000	          0.00000000	        176.32945584	        674.67083815	          0.22664188	         -0.01270297	         -0.07499700	         -0.10582485	          0.00000000	          0.00000000	          0.00000000	          0.00000000	         -3.90194456	          0.00000000	
          1.11600000	          0.00000000	          0.00000000	          0.00000000	          0.00000000	          0.00000000	          0.00000000	        178.70599852	        648.07178158	         -1.17443174	         -0.01237298	         -0.07499616	         -0.10557945	          0.00000000	          0.00000000	          0.00000000	          0.00000000	         -3.60869693	          0.00000000	
          1.12000000	          0.00000000	          0.00000000	          0.00000000	          0.00000000	          0.00000000	          0.00000000	        179.90856434	        619.95939914	         -2.37630533	         -0.01203082	         -0.07499600	         -0.10541049	          0.00000000	          0.00000000	          0.00000000	          0.00000000	         -3.31226502	          0.00000000	
          1.12400000	          0.00000000	          0.00000000	          0.00000000	          0.00000000	          0.00000000	          0.00000000	        179.76302233	        590.33936775	         -3.37604347	         -0.01168248	         -0.07499587	         -0.10533259	          0.00000000	          0.00000000	          0.00000000	          0.00000000	         -3.01895061	          0.00000000	
          1.12800000	          0.00000000	          0.00000000	          0.00000000	          0.00000000	          0.00000000	          0.00000000	        178.15645223	        559.24801382	         -4.15790364	         -0.01134073	         -0.07499523	         -0.10532901	          0.00000000	          0.00000000	          0.00000000	          0.00000000	         -2.73559342	          0.00000000	
          1.13200000	          0.00000000	          0.00000000	          0.00000000	          0.00000000	          0.00000000	          0.00000000	        175.05019820	        526.76851654	         -4.72655769	         -0.01102447	         -0.07499500	         -0.10538562	          0.00000000	          0.00000000	          0.00000000	          0.00000000	         -2.46839708	          0.00000000	
          1.13600000	          0.00000000	          0.00000000	          0.00000000	          0.00000000	          0.00000000	          0.00000000	        170.46828804	        493.01034046	         -5.12850633	         -0.01077377	         -0.07499500	         -0.10551438	          0.00000000	          0.00000000	          0.00000000	          0.00000000	         -2.22213023	          0.00000000	
